<?xml version="1.0" encoding="utf-8"?>
<!-- Generator: Adobe Illustrator 24.0.3, SVG Export Plug-In . SVG Version: 6.00 Build 0)  -->
<svg version="1.1" id="Calque_1" xmlns="http://www.w3.org/2000/svg" xmlns:xlink="http://www.w3.org/1999/xlink" x="0px" y="0px"
	 viewBox="0 0 685.2 162.8" style="enable-background:new 0 0 685.2 162.8;" xml:space="preserve">
<style type="text/css">
	.st0{fill:#052854;}
	.st1{fill:#3D98C6;}
	.st2{fill:#9299B4;}
	.st3{opacity:0.7;fill:#3D98C6;enable-background:new    ;}
</style>
<title>LOGO_UmanIT_RGB</title>
<g>
	<g id="LOGO">
		<path class="st0" d="M302.7,49.7c0,12.7,4.1,24.2,11.5,32.6c8,9,19.5,13.8,33.3,13.8c10.4,0,19-2.6,25.7-7.8l2.5-1.9v11.4h32.5V0
			h-55.4c-13.8-0.1-27,5.3-36.8,15.1C307.6,23.6,302.7,36.2,302.7,49.7z M340.3,32.4c2.2-2,4.7-3.5,7.4-4.5c2.9-1.1,6.1-1.7,9.2-1.6
			l18.6,0.1v27.3c0,4.5-2.2,8.2-6.3,10.9c-4.2,2.6-9.1,3.9-14,3.8c-6.9,0-12.4-2.3-16.2-6.7c-3.3-4-5.1-9.1-5-14.4
			C333.9,41.6,336.2,36.2,340.3,32.4z"/>
		<path class="st0" d="M476.1,26.2c8.1,0,13.5,6.6,13.5,14.1v57.5h32.5v-56c0-27.6-12-40.9-38-41.7h-59.6v97.7h32.5V26.2H476.1z"/>
		<rect x="227.8" y="130.2" class="st1" width="32.5" height="32.5"/>
		<path class="st1" d="M130,26.2v45.5h-19c-8.1,0-13.5-6.6-13.5-14.1V0H65v56c0,27.6,12,40.9,37.9,41.7h59.6V26.2H130z"/>
		<path class="st0" d="M254.9,0H130v26.1h51.7c8.1,0,13.5,6.6,13.5,14.1v57.5h32.5v-56c0.1-5.2-0.5-10.5-1.6-15.6h20.7
			c8.1,0,13.5,6.6,13.5,14.1v57.5h32.5v-56C292.8,14.1,280.8,0.8,254.9,0z"/>
		<rect x="130.1" y="26.1" class="st2" width="32.5" height="32.5"/>
		<rect y="26.1" class="st3" width="32.5" height="32.5"/>
		<rect x="538.5" y="0" class="st1" width="32.5" height="97.7"/>
		<rect x="538.5" y="65.2" class="st2" width="32.5" height="32.5"/>
		<polygon class="st1" points="652.6,0 620,0 587.5,0 587.5,32.5 620,32.5 620,97.7 652.6,97.7 652.6,32.5 685.2,32.5 685.2,0 		"/>
		<rect x="587.5" y="0" class="st2" width="32.5" height="32.5"/>
	</g>
</g>
</svg>
